<?xml version="1.0" encoding="UTF-8" standalone="no"?>
<!-- Created with Inkscape (http://www.inkscape.org/) -->

<svg
   width="300"
   height="300"
   viewBox="0 0 79.375 79.374999"
   version="1.1"
   id="svg1"
   sodipodi:docname="charge_bar.svg"
   inkscape:version="1.3 (0e150ed6c4, 2023-07-21)"
   xmlns:inkscape="http://www.inkscape.org/namespaces/inkscape"
   xmlns:sodipodi="http://sodipodi.sourceforge.net/DTD/sodipodi-0.dtd"
   xmlns="http://www.w3.org/2000/svg"
   xmlns:svg="http://www.w3.org/2000/svg">
  <sodipodi:namedview
     id="namedview1"
     pagecolor="#000000"
     bordercolor="#999999"
     borderopacity="1"
     inkscape:showpageshadow="2"
     inkscape:pageopacity="0"
     inkscape:pagecheckerboard="false"
     inkscape:deskcolor="#000000"
     inkscape:document-units="mm"
     inkscape:zoom="2.114039"
     inkscape:cx="128.42715"
     inkscape:cy="172.8918"
     inkscape:window-width="1920"
     inkscape:window-height="1017"
     inkscape:window-x="-8"
     inkscape:window-y="-8"
     inkscape:window-maximized="1"
     inkscape:current-layer="layer1"
     showgrid="false">
    <inkscape:grid
       id="grid9"
       units="mm"
       originx="0"
       originy="0"
       spacingx="1"
       spacingy="0.99999999"
       empcolor="#0099e5"
       empopacity="0.30196078"
       color="#0099e5"
       opacity="0.14901961"
       empspacing="5"
       dotted="false"
       gridanglex="30"
       gridanglez="30"
       visible="false" />
  </sodipodi:namedview>
  <defs
     id="defs1">
    <inkscape:path-effect
       effect="fillet_chamfer"
       id="path-effect11"
       is_visible="true"
       lpeversion="1"
       nodesatellites_param="F,0,0,1,0,13.229167,0,1 @ F,0,0,1,0,13.229167,0,1 @ F,0,0,1,0,13.229167,0,1 @ F,0,0,1,0,13.229167,0,1"
       radius="50"
       unit="px"
       method="auto"
       mode="F"
       chamfer_steps="1"
       flexible="false"
       use_knot_distance="true"
       apply_no_radius="true"
       apply_with_radius="true"
       only_selected="false"
       hide_knots="false" />
    <inkscape:path-effect
       effect="fillet_chamfer"
       id="path-effect10"
       is_visible="true"
       lpeversion="1"
       nodesatellites_param="F,0,0,1,0,15.875,0,1 @ F,0,0,1,0,15.875,0,1 @ F,0,0,1,0,15.875,0,1 @ F,0,0,1,0,15.875,0,1"
       radius="60"
       unit="px"
       method="auto"
       mode="F"
       chamfer_steps="1"
       flexible="false"
       use_knot_distance="true"
       apply_no_radius="true"
       apply_with_radius="true"
       only_selected="false"
       hide_knots="false" />
    <inkscape:path-effect
       effect="mirror_symmetry"
       start_point="26.458333,0"
       end_point="26.458333,52.916667"
       center_point="26.458333,26.458333"
       id="path-effect3"
       is_visible="true"
       lpeversion="1.2"
       lpesatellites=""
       mode="vertical"
       discard_orig_path="false"
       fuse_paths="false"
       oposite_fuse="false"
       split_items="false"
       split_open="false"
       link_styles="false" />
  </defs>
  <g
     inkscape:label="Layer 1"
     inkscape:groupmode="layer"
     id="layer1">
    <path
       d="m 21.507214,5.6322144 a 15.875,15.875 0 0 0 -3.532601,0.3979085 15.875,15.875 0 0 0 -3.35535,1.1740885 15.875,15.875 0 0 0 -3.010152,1.8913574 15.875,15.875 0 0 0 -2.5135422,2.5135422 15.875,15.875 0 0 0 -1.8913574,3.010152 15.875,15.875 0 0 0 -1.1740885,3.35535 15.875,15.875 0 0 0 -0.3979085,3.532601 v 36.360572 a 15.875,15.875 0 0 0 0.3979085,3.532601 15.875,15.875 0 0 0 1.1740885,3.35535 15.875,15.875 0 0 0 1.8913574,3.010152 15.875,15.875 0 0 0 2.5135422,2.513542 15.875,15.875 0 0 0 3.010152,1.891358 15.875,15.875 0 0 0 3.35535,1.174088 15.875,15.875 0 0 0 3.532601,0.397909 h 36.360572 a 15.875,15.875 0 0 0 3.532601,-0.397909 15.875,15.875 0 0 0 3.35535,-1.174088 15.875,15.875 0 0 0 3.010152,-1.891358 15.875,15.875 0 0 0 2.513542,-2.513542 15.875,15.875 0 0 0 1.891358,-3.010152 15.875,15.875 0 0 0 1.174088,-3.35535 15.875,15.875 0 0 0 0.397909,-3.532601 V 21.507214 a 15.875,15.875 0 0 0 -0.04858,-1.245918 15.875,15.875 0 0 0 -0.146761,-1.237651 15.875,15.875 0 0 0 -0.24288,-1.222664 15.875,15.875 0 0 0 -0.33848,-1.19941 A 15.875,15.875 0 0 0 72.534591,15.432133 15.875,15.875 0 0 0 72.012659,14.299902 15.875,15.875 0 0 0 71.40391,13.212113 15.875,15.875 0 0 0 70.710929,12.176001 15.875,15.875 0 0 0 69.9394,11.197249 15.875,15.875 0 0 0 69.093457,10.281543 15.875,15.875 0 0 0 68.177751,9.4355998 15.875,15.875 0 0 0 67.198999,8.6640706 15.875,15.875 0 0 0 66.162887,7.9710897 15.875,15.875 0 0 0 65.075098,7.3623413 15.875,15.875 0 0 0 63.942867,6.8404093 15.875,15.875 0 0 0 62.773429,6.4089111 15.875,15.875 0 0 0 61.574019,6.0704305 15.875,15.875 0 0 0 60.351355,5.8275513 15.875,15.875 0 0 0 59.113704,5.6807902 15.875,15.875 0 0 0 57.867786,5.6322144 Z m 1.984892,4.6307246 h 32.390788 a 13.229167,13.229167 0 0 1 1.09244,0.04496 13.229167,13.229167 0 0 1 1.085205,0.135392 13.229167,13.229167 0 0 1 1.070219,0.224276 13.229167,13.229167 0 0 1 1.047998,0.312126 13.229167,13.229167 0 0 1 1.018542,0.397391 13.229167,13.229167 0 0 1 0.982369,0.480074 13.229167,13.229167 0 0 1 0.938961,0.559656 13.229167,13.229167 0 0 1 0.889868,0.63562 13.229167,13.229167 0 0 1 0.834574,0.706417 13.229167,13.229167 0 0 1 0.77308,0.77308 13.229167,13.229167 0 0 1 0.706417,0.834574 13.229167,13.229167 0 0 1 0.63562,0.889868 13.229167,13.229167 0 0 1 0.559656,0.938961 13.229167,13.229167 0 0 1 0.480074,0.982369 13.229167,13.229167 0 0 1 0.397391,1.018542 13.229167,13.229167 0 0 1 0.312126,1.047998 13.229167,13.229167 0 0 1 0.224276,1.070219 13.229167,13.229167 0 0 1 0.135392,1.085205 13.229167,13.229167 0 0 1 0.04496,1.09244 v 32.390788 a 13.229167,13.229167 0 0 1 -0.331246,2.944006 13.229167,13.229167 0 0 1 -0.978752,2.796212 13.229167,13.229167 0 0 1 -1.576131,2.508374 13.229167,13.229167 0 0 1 -2.094446,2.094446 13.229167,13.229167 0 0 1 -2.508374,1.576131 13.229167,13.229167 0 0 1 -2.796212,0.978752 13.229167,13.229167 0 0 1 -2.944006,0.331246 H 23.492106 A 13.229167,13.229167 0 0 1 20.5481,68.780815 13.229167,13.229167 0 0 1 17.751888,67.802063 13.229167,13.229167 0 0 1 15.243514,66.225932 13.229167,13.229167 0 0 1 13.149068,64.131486 13.229167,13.229167 0 0 1 11.572937,61.623112 13.229167,13.229167 0 0 1 10.594185,58.8269 13.229167,13.229167 0 0 1 10.262939,55.882894 V 23.492106 a 13.229167,13.229167 0 0 1 0.331246,-2.944006 13.229167,13.229167 0 0 1 0.978752,-2.796212 13.229167,13.229167 0 0 1 1.576131,-2.508374 13.229167,13.229167 0 0 1 2.094446,-2.094446 13.229167,13.229167 0 0 1 2.508374,-1.576131 13.229167,13.229167 0 0 1 2.796212,-0.978752 13.229167,13.229167 0 0 1 2.944006,-0.331246 z"
       style="fill:#ffffff;stroke:#ffffff;stroke-width:0;stroke-linecap:round;stroke-linejoin:round;stroke-miterlimit:100"
       id="path13" />
  </g>
</svg>
