<?xml version="1.0" encoding="UTF-8" standalone="no"?>
<!-- Created with Inkscape (http://www.inkscape.org/) -->

<svg
   width="300"
   height="300"
   viewBox="0 0 79.375 79.374999"
   version="1.1"
   id="svg1"
   sodipodi:docname="charge_bar_fill.svg"
   inkscape:version="1.3 (0e150ed6c4, 2023-07-21)"
   xmlns:inkscape="http://www.inkscape.org/namespaces/inkscape"
   xmlns:sodipodi="http://sodipodi.sourceforge.net/DTD/sodipodi-0.dtd"
   xmlns="http://www.w3.org/2000/svg"
   xmlns:svg="http://www.w3.org/2000/svg">
  <sodipodi:namedview
     id="namedview1"
     pagecolor="#000000"
     bordercolor="#999999"
     borderopacity="1"
     inkscape:showpageshadow="2"
     inkscape:pageopacity="0"
     inkscape:pagecheckerboard="false"
     inkscape:deskcolor="#000000"
     inkscape:document-units="mm"
     inkscape:zoom="2.114039"
     inkscape:cx="128.42715"
     inkscape:cy="172.8918"
     inkscape:window-width="1920"
     inkscape:window-height="1017"
     inkscape:window-x="-8"
     inkscape:window-y="-8"
     inkscape:window-maximized="1"
     inkscape:current-layer="layer1"
     showgrid="false">
    <inkscape:grid
       id="grid9"
       units="mm"
       originx="0"
       originy="0"
       spacingx="1"
       spacingy="0.99999999"
       empcolor="#0099e5"
       empopacity="0.30196078"
       color="#0099e5"
       opacity="0.14901961"
       empspacing="5"
       dotted="false"
       gridanglex="30"
       gridanglez="30"
       visible="false" />
  </sodipodi:namedview>
  <defs
     id="defs1">
    <inkscape:path-effect
       effect="fillet_chamfer"
       id="path-effect11"
       is_visible="true"
       lpeversion="1"
       nodesatellites_param="F,0,0,1,0,13.229167,0,1 @ F,0,0,1,0,13.229167,0,1 @ F,0,0,1,0,13.229167,0,1 @ F,0,0,1,0,13.229167,0,1"
       radius="50"
       unit="px"
       method="auto"
       mode="F"
       chamfer_steps="1"
       flexible="false"
       use_knot_distance="true"
       apply_no_radius="true"
       apply_with_radius="true"
       only_selected="false"
       hide_knots="false" />
    <inkscape:path-effect
       effect="fillet_chamfer"
       id="path-effect10"
       is_visible="true"
       lpeversion="1"
       nodesatellites_param="F,0,0,1,0,15.875,0,1 @ F,0,0,1,0,15.875,0,1 @ F,0,0,1,0,15.875,0,1 @ F,0,0,1,0,15.875,0,1"
       radius="60"
       unit="px"
       method="auto"
       mode="F"
       chamfer_steps="1"
       flexible="false"
       use_knot_distance="true"
       apply_no_radius="true"
       apply_with_radius="true"
       only_selected="false"
       hide_knots="false" />
    <inkscape:path-effect
       effect="mirror_symmetry"
       start_point="26.458333,0"
       end_point="26.458333,52.916667"
       center_point="26.458333,26.458333"
       id="path-effect3"
       is_visible="true"
       lpeversion="1.2"
       lpesatellites=""
       mode="vertical"
       discard_orig_path="false"
       fuse_paths="false"
       oposite_fuse="false"
       split_items="false"
       split_open="false"
       link_styles="false" />
  </defs>
  <g
     inkscape:label="Layer 1"
     inkscape:groupmode="layer"
     id="layer1">
    <path
       d="m 26.040788,14.893665 a 11.147214,11.147214 0 0 0 -2.885095,0.379821 11.147214,11.147214 0 0 0 -2.688725,1.113627 11.147214,11.147214 0 0 0 -2.308386,1.771469 11.147214,11.147214 0 0 0 -1.771469,2.308386 11.147214,11.147214 0 0 0 -1.113627,2.688725 11.147214,11.147214 0 0 0 -0.379821,2.885095 v 27.293424 a 11.147214,11.147214 0 0 0 0.379821,2.885095 11.147214,11.147214 0 0 0 1.113627,2.688725 11.147214,11.147214 0 0 0 1.771469,2.308386 11.147214,11.147214 0 0 0 2.308386,1.771469 11.147214,11.147214 0 0 0 2.688725,1.113627 11.147214,11.147214 0 0 0 2.885095,0.379821 h 27.293424 a 11.147214,11.147214 0 0 0 2.885095,-0.379821 11.147214,11.147214 0 0 0 2.688725,-1.113627 11.147214,11.147214 0 0 0 2.308386,-1.771469 11.147214,11.147214 0 0 0 1.771469,-2.308386 11.147214,11.147214 0 0 0 1.113627,-2.688725 11.147214,11.147214 0 0 0 0.379821,-2.885095 V 26.040788 a 11.147214,11.147214 0 0 0 -0.04754,-1.028361 11.147214,11.147214 0 0 0 -0.14211,-1.020093 11.147214,11.147214 0 0 0 -0.235645,-1.002006 11.147214,11.147214 0 0 0 -0.327111,-0.976685 11.147214,11.147214 0 0 0 -0.415996,-0.941544 11.147214,11.147214 0 0 0 -0.501261,-0.899687 11.147214,11.147214 0 0 0 -0.581877,-0.84956 11.147214,11.147214 0 0 0 -0.657841,-0.7922 11.147214,11.147214 0 0 0 -0.727604,-0.727604 11.147214,11.147214 0 0 0 -0.7922,-0.657841 11.147214,11.147214 0 0 0 -0.84956,-0.581877 11.147214,11.147214 0 0 0 -0.899687,-0.501261 11.147214,11.147214 0 0 0 -0.941544,-0.415996 11.147214,11.147214 0 0 0 -0.976685,-0.327111 11.147214,11.147214 0 0 0 -1.002006,-0.235645 11.147214,11.147214 0 0 0 -1.019576,-0.14211 11.147214,11.147214 0 0 0 -1.028878,-0.04754 z"
       style="fill:#f9f9f9;stroke:#ffffff;stroke-width:0;stroke-linecap:round;stroke-linejoin:round;stroke-miterlimit:100"
       id="path14" />
  </g>
</svg>
