<?xml version="1.0" encoding="UTF-8" standalone="no"?>
<!-- Created with Inkscape (http://www.inkscape.org/) -->

<svg
   width="200"
   height="200"
   viewBox="0 0 52.916667 52.916666"
   version="1.1"
   id="svg1"
   sodipodi:docname="player.svg"
   inkscape:version="1.3 (0e150ed6c4, 2023-07-21)"
   xmlns:inkscape="http://www.inkscape.org/namespaces/inkscape"
   xmlns:sodipodi="http://sodipodi.sourceforge.net/DTD/sodipodi-0.dtd"
   xmlns="http://www.w3.org/2000/svg"
   xmlns:svg="http://www.w3.org/2000/svg">
  <sodipodi:namedview
     id="namedview1"
     pagecolor="#000000"
     bordercolor="#999999"
     borderopacity="1"
     inkscape:showpageshadow="2"
     inkscape:pageopacity="0"
     inkscape:pagecheckerboard="false"
     inkscape:deskcolor="#000000"
     inkscape:document-units="mm"
     inkscape:zoom="2.114039"
     inkscape:cx="35.240599"
     inkscape:cy="105.24877"
     inkscape:window-width="1920"
     inkscape:window-height="1017"
     inkscape:window-x="-8"
     inkscape:window-y="-8"
     inkscape:window-maximized="1"
     inkscape:current-layer="layer1" />
  <defs
     id="defs1">
    <inkscape:path-effect
       effect="mirror_symmetry"
       start_point="26.458333,0"
       end_point="26.458333,52.916667"
       center_point="26.458333,26.458333"
       id="path-effect3"
       is_visible="true"
       lpeversion="1.2"
       lpesatellites=""
       mode="vertical"
       discard_orig_path="false"
       fuse_paths="false"
       oposite_fuse="false"
       split_items="false"
       split_open="false"
       link_styles="false" />
  </defs>
  <g
     inkscape:label="Layer 1"
     inkscape:groupmode="layer"
     id="layer1">
    <path
       d="m 33.120976,0.94412842 c 0.0013,0.004658 0.09654,0.35208558 0.298173,0.93327638 0.101487,0.292534 0.229377,0.643054 0.384989,1.0355957 0.155612,0.3925417 0.33888,0.8271004 0.550871,1.2888102 0.211991,0.4617098 0.452847,0.9505192 0.72347,1.4505575 0.135311,0.2500191 0.278005,0.5027241 0.428398,0.7565429 0.150392,0.2538189 0.308118,0.5084638 0.473873,0.7622274 0.165754,0.2537636 0.339499,0.5066895 0.520898,0.756543 0.181399,0.2498534 0.370599,0.4968846 0.567924,0.738973 0.197325,0.2420883 0.402968,0.4790491 0.6165,0.7095174 0.213532,0.2304682 0.435054,0.4542165 0.665075,0.6692101 0.0059,0.0055 0.01169,0.01353 0.01757,0.01912 a 20.268723,20.268723 0 0 1 0.727088,0.547253 20.268723,20.268723 0 0 1 0.868681,0.733289 20.268723,20.268723 0 0 1 0.825789,0.781348 20.268723,20.268723 0 0 1 0.781348,0.825789 20.268723,20.268723 0 0 1 0.733288,0.868681 20.268723,20.268723 0 0 1 0.683679,0.908471 20.268723,20.268723 0 0 1 0.632003,0.945162 20.268723,20.268723 0 0 1 0.577226,0.979269 20.268723,20.268723 0 0 1 0.521932,1.010274 20.268723,20.268723 0 0 1 0.464571,1.037663 20.268723,20.268723 0 0 1 0.405143,1.062467 20.268723,20.268723 0 0 1 0.345199,1.083138 20.268723,20.268723 0 0 1 0.28422,1.100708 20.268723,20.268723 0 0 1 0.221692,1.115178 20.268723,20.268723 0 0 1 0.159164,1.125512 20.268723,20.268723 0 0 1 0.0956,1.133265 20.268723,20.268723 0 0 1 0.03152,1.136364 20.268723,20.268723 0 0 1 -0.249598,3.170866 20.268723,20.268723 0 0 1 -0.742073,3.092318 20.268723,20.268723 0 0 1 -1.050582,2.536279 c 7.8e-5,6.42e-4 0.0072,0.05323 0.0072,0.05323 l -0.02481,-0.01137 a 20.268723,20.268723 0 0 1 -0.149345,0.360702 20.268723,20.268723 0 0 1 -1.661397,2.711462 20.268723,20.268723 0 0 1 -2.066024,2.418457 20.268723,20.268723 0 0 1 -2.418457,2.066024 20.268723,20.268723 0 0 1 -2.711462,1.661397 20.268723,20.268723 0 0 1 -2.938839,1.217497 20.268723,20.268723 0 0 1 -3.092318,0.742073 20.268723,20.268723 0 0 1 -3.170866,0.249598 A 20.268723,20.268723 0 0 1 23.287467,46.477266 20.268723,20.268723 0 0 1 20.19515,45.735193 20.268723,20.268723 0 0 1 17.256311,44.517696 20.268723,20.268723 0 0 1 14.544849,42.856299 20.268723,20.268723 0 0 1 12.126392,40.790275 20.268723,20.268723 0 0 1 10.060368,38.371818 20.268723,20.268723 0 0 1 8.3989705,35.660356 20.268723,20.268723 0 0 1 8.2496257,35.299654 l -0.024805,0.01137 c 0,0 0.00716,-0.05259 0.00723,-0.05323 A 20.268723,20.268723 0 0 1 7.1814738,32.721517 20.268723,20.268723 0 0 1 6.4394002,29.629199 20.268723,20.268723 0 0 1 6.1898031,26.458333 20.268723,20.268723 0 0 1 6.4394002,23.287467 20.268723,20.268723 0 0 1 7.1814738,20.19515 a 20.268723,20.268723 0 0 1 1.2174967,-2.938839 20.268723,20.268723 0 0 1 1.6613975,-2.711462 20.268723,20.268723 0 0 1 2.066024,-2.418457 20.268723,20.268723 0 0 1 2.418457,-2.066024 20.268723,20.268723 0 0 1 0.01602,-0.0098 c 0.0016,-0.0015 0.0031,-0.0037 0.0047,-0.0052 0.230022,-0.2149936 0.451544,-0.4387419 0.665076,-0.6692101 0.213532,-0.2304683 0.419175,-0.4674291 0.6165,-0.7095174 0.197324,-0.2420884 0.386525,-0.4891196 0.567924,-0.738973 0.181398,-0.2498535 0.355144,-0.5027794 0.520898,-0.756543 0.165755,-0.2537636 0.323481,-0.5084085 0.473873,-0.7622274 0.150392,-0.2538188 0.293086,-0.5065238 0.428398,-0.7565429 0.270623,-0.5000383 0.511479,-0.9888477 0.72347,-1.4505575 0.21199,-0.4617098 0.395258,-0.8962685 0.55087,-1.2888102 0.155613,-0.3925417 0.283502,-0.7430617 0.38499,-1.0355957 0.192145,-0.5538515 0.274399,-0.8539022 0.28422,-0.88935141 A 26.375099,26.375099 0 0 0 19.027779,1.1518677 26.375099,26.375099 0 0 0 15.501896,2.4665161 26.375099,26.375099 0 0 0 12.198739,4.2700236 26.375099,26.375099 0 0 0 9.1865194,6.5251831 26.375099,26.375099 0 0 0 6.5251831,9.1865194 26.375099,26.375099 0 0 0 4.2700236,12.198739 a 26.375099,26.375099 0 0 0 -1.8035075,3.303157 26.375099,26.375099 0 0 0 -1.3146484,3.525883 26.375099,26.375099 0 0 0 -0.7999512,3.676778 26.375099,26.375099 0 0 0 -0.26871744,3.753776 26.375099,26.375099 0 0 0 0.26871744,3.753776 26.375099,26.375099 0 0 0 0.7999512,3.676779 26.375099,26.375099 0 0 0 1.3146484,3.525883 26.375099,26.375099 0 0 0 1.8035075,3.303157 26.375099,26.375099 0 0 0 2.2551595,3.012219 26.375099,26.375099 0 0 0 2.6613363,2.661337 26.375099,26.375099 0 0 0 3.0122196,2.255159 26.375099,26.375099 0 0 0 3.303157,1.803508 26.375099,26.375099 0 0 0 3.525883,1.314648 26.375099,26.375099 0 0 0 3.676778,0.799951 26.375099,26.375099 0 0 0 3.753776,0.268718 26.375099,26.375099 0 0 0 3.753776,-0.268718 26.375099,26.375099 0 0 0 3.676779,-0.799951 26.375099,26.375099 0 0 0 3.525883,-1.314648 26.375099,26.375099 0 0 0 3.303157,-1.803508 26.375099,26.375099 0 0 0 3.012219,-2.255159 26.375099,26.375099 0 0 0 2.661337,-2.661337 26.375099,26.375099 0 0 0 2.255159,-3.012219 26.375099,26.375099 0 0 0 1.803508,-3.303157 26.375099,26.375099 0 0 0 1.314648,-3.525883 26.375099,26.375099 0 0 0 0.799951,-3.676779 26.375099,26.375099 0 0 0 0.268718,-3.753776 26.375099,26.375099 0 0 0 -0.03204,-1.293978 26.375099,26.375099 0 0 0 -0.09508,-1.291394 26.375099,26.375099 0 0 0 -0.15813,-1.284676 26.375099,26.375099 0 0 0 -0.221692,-1.275374 26.375099,26.375099 0 0 0 -0.283704,-1.262972 26.375099,26.375099 0 0 0 -0.345198,-1.247986 26.375099,26.375099 0 0 0 -0.406177,-1.228865 26.375099,26.375099 0 0 0 -0.465605,-1.208195 26.375099,26.375099 0 0 0 -0.524516,-1.183391 26.375099,26.375099 0 0 0 -0.582393,-1.156518 26.375099,26.375099 0 0 0 -0.637687,-1.12603 26.375099,26.375099 0 0 0 -0.692981,-1.09399 A 26.375099,26.375099 0 0 0 47.643087,10.746631 26.375099,26.375099 0 0 0 46.846753,9.7260213 26.375099,26.375099 0 0 0 46.00081,8.7457194 26.375099,26.375099 0 0 0 45.108358,7.8083089 26.375099,26.375099 0 0 0 44.170947,6.9158569 26.375099,26.375099 0 0 0 43.190645,6.0699137 26.375099,26.375099 0 0 0 42.170036,5.2735799 26.375099,26.375099 0 0 0 41.111702,4.5284058 26.375099,26.375099 0 0 0 40.017712,3.8354248 26.375099,26.375099 0 0 0 38.891683,3.1977376 26.375099,26.375099 0 0 0 37.735164,2.6153442 26.375099,26.375099 0 0 0 36.551774,2.0908285 26.375099,26.375099 0 0 0 35.343579,1.6252238 26.375099,26.375099 0 0 0 34.114714,1.219047 26.375099,26.375099 0 0 0 33.120976,0.94412842 Z"
       style="fill:#ffffff;stroke:#ffffff;stroke-width:0;stroke-linecap:round;stroke-linejoin:round;stroke-miterlimit:100"
       id="path4" />
    <path
       d="m 26.458333,12.773897 a 14.115097,14.115097 0 0 0 -2.008663,0.143661 14.115097,14.115097 0 0 0 -1.967838,0.427881 14.115097,14.115097 0 0 0 -1.887223,0.703833 14.115097,14.115097 0 0 0 -1.767334,0.965315 14.115097,14.115097 0 0 0 -1.612305,1.206645 14.115097,14.115097 0 0 0 -1.424203,1.424203 14.115097,14.115097 0 0 0 -1.206644,1.612304 14.115097,14.115097 0 0 0 -0.965316,1.767334 14.115097,14.115097 0 0 0 -0.703833,1.887224 14.115097,14.115097 0 0 0 -0.427881,1.967838 14.115097,14.115097 0 0 0 -0.14366,2.008663 14.115097,14.115097 0 0 0 0.14366,2.008663 14.115097,14.115097 0 0 0 0.427881,1.967838 14.115097,14.115097 0 0 0 0.703833,1.887224 14.115097,14.115097 0 0 0 0.965316,1.767334 14.115097,14.115097 0 0 0 1.206644,1.612304 14.115097,14.115097 0 0 0 1.424203,1.424203 14.115097,14.115097 0 0 0 1.612305,1.206645 14.115097,14.115097 0 0 0 1.767334,0.965315 14.115097,14.115097 0 0 0 1.887223,0.703833 14.115097,14.115097 0 0 0 1.967838,0.427881 14.115097,14.115097 0 0 0 2.008663,0.143661 14.115097,14.115097 0 0 0 2.008663,-0.143661 14.115097,14.115097 0 0 0 1.967839,-0.427881 14.115097,14.115097 0 0 0 1.887223,-0.703833 14.115097,14.115097 0 0 0 1.767334,-0.965315 14.115097,14.115097 0 0 0 1.612305,-1.206645 14.115097,14.115097 0 0 0 1.424202,-1.424203 14.115097,14.115097 0 0 0 1.206645,-1.612304 14.115097,14.115097 0 0 0 0.965316,-1.767334 14.115097,14.115097 0 0 0 0.703833,-1.887224 14.115097,14.115097 0 0 0 0.427881,-1.967838 14.115097,14.115097 0 0 0 0.14366,-2.008663 14.115097,14.115097 0 0 0 -0.01705,-0.692464 14.115097,14.115097 0 0 0 -0.05064,-0.690914 14.115097,14.115097 0 0 0 -0.08475,-0.687813 14.115097,14.115097 0 0 0 -0.118339,-0.682646 14.115097,14.115097 0 0 0 -0.151929,-0.675928 14.115097,14.115097 0 0 0 -0.185002,-0.667659 14.115097,14.115097 0 0 0 -0.217041,-0.657841 14.115097,14.115097 0 0 0 -0.249597,-0.646472 14.115097,14.115097 0 0 0 -0.280603,-0.633037 14.115097,14.115097 0 0 0 -0.311609,-0.619083 14.115097,14.115097 0 0 0 -0.341581,-0.602548 14.115097,14.115097 0 0 0 -0.37052,-0.585494 14.115097,14.115097 0 0 0 -0.398942,-0.566373 14.115097,14.115097 0 0 0 -0.426331,-0.54622 14.115097,14.115097 0 0 0 -0.452169,-0.524516 14.115097,14.115097 0 0 0 -0.478007,-0.501778 14.115097,14.115097 0 0 0 -0.501778,-0.478007 14.115097,14.115097 0 0 0 -0.524515,-0.452169 14.115097,14.115097 0 0 0 -0.54622,-0.42633 14.115097,14.115097 0 0 0 -0.566374,-0.398943 14.115097,14.115097 0 0 0 -0.585494,-0.37052 14.115097,14.115097 0 0 0 -0.602547,-0.341581 14.115097,14.115097 0 0 0 -0.619084,-0.311609 14.115097,14.115097 0 0 0 -0.633036,-0.280603 14.115097,14.115097 0 0 0 -0.646472,-0.249597 14.115097,14.115097 0 0 0 -0.657841,-0.217041 14.115097,14.115097 0 0 0 -0.66766,-0.185001 14.115097,14.115097 0 0 0 -0.675928,-0.151929 14.115097,14.115097 0 0 0 -0.682645,-0.118339 14.115097,14.115097 0 0 0 -0.687814,-0.08475 14.115097,14.115097 0 0 0 -0.690913,-0.05064 14.115097,14.115097 0 0 0 -0.692465,-0.01705 z m 0,4.402316 a 9.7124949,9.7124949 0 0 1 0.586528,0.01757 9.7124949,9.7124949 0 0 1 0.583944,0.05323 9.7124949,9.7124949 0 0 1 0.580326,0.08837 9.7124949,9.7124949 0 0 1 0.573608,0.12299 9.7124949,9.7124949 0 0 1 0.56534,0.157613 9.7124949,9.7124949 0 0 1 0.554489,0.19172 9.7124949,9.7124949 0 0 1 0.542085,0.224275 9.7124949,9.7124949 0 0 1 0.5271,0.256832 9.7124949,9.7124949 0 0 1 0.51108,0.288355 9.7124949,9.7124949 0 0 1 0.492993,0.318326 9.7124949,9.7124949 0 0 1 0.472323,0.347783 9.7124949,9.7124949 0 0 1 0.450618,0.375688 9.7124949,9.7124949 0 0 1 0.427364,0.402042 9.7124949,9.7124949 0 0 1 0.402043,0.427364 9.7124949,9.7124949 0 0 1 0.375687,0.450619 9.7124949,9.7124949 0 0 1 0.347783,0.472322 9.7124949,9.7124949 0 0 1 0.318327,0.492994 9.7124949,9.7124949 0 0 1 0.288354,0.511079 9.7124949,9.7124949 0 0 1 0.256832,0.5271 9.7124949,9.7124949 0 0 1 0.224276,0.542086 9.7124949,9.7124949 0 0 1 0.191719,0.554488 9.7124949,9.7124949 0 0 1 0.157613,0.56534 9.7124949,9.7124949 0 0 1 0.12299,0.573608 9.7124949,9.7124949 0 0 1 0.08837,0.580327 9.7124949,9.7124949 0 0 1 0.05323,0.583944 9.7124949,9.7124949 0 0 1 0.01757,0.586527 9.7124949,9.7124949 0 0 1 -0.147795,1.686719 9.7124949,9.7124949 0 0 1 -0.438216,1.635042 9.7124949,9.7124949 0 0 1 -0.715202,1.534273 9.7124949,9.7124949 0 0 1 -0.971,1.386996 9.7124949,9.7124949 0 0 1 -1.197343,1.197343 9.7124949,9.7124949 0 0 1 -1.386995,0.971 9.7124949,9.7124949 0 0 1 -1.534274,0.715202 9.7124949,9.7124949 0 0 1 -1.635042,0.438216 9.7124949,9.7124949 0 0 1 -1.686719,0.147794 9.7124949,9.7124949 0 0 1 -1.686718,-0.147794 9.7124949,9.7124949 0 0 1 -1.635043,-0.438216 9.7124949,9.7124949 0 0 1 -1.534273,-0.715202 9.7124949,9.7124949 0 0 1 -1.386995,-0.971 9.7124949,9.7124949 0 0 1 -1.197343,-1.197343 9.7124949,9.7124949 0 0 1 -0.971001,-1.386996 9.7124949,9.7124949 0 0 1 -0.715201,-1.534273 9.7124949,9.7124949 0 0 1 -0.438217,-1.635042 9.7124949,9.7124949 0 0 1 -0.147794,-1.686719 9.7124949,9.7124949 0 0 1 0.147794,-1.686719 9.7124949,9.7124949 0 0 1 0.438217,-1.635042 9.7124949,9.7124949 0 0 1 0.715201,-1.534273 9.7124949,9.7124949 0 0 1 0.971001,-1.386996 9.7124949,9.7124949 0 0 1 1.197343,-1.197343 9.7124949,9.7124949 0 0 1 1.386995,-0.971 9.7124949,9.7124949 0 0 1 1.534273,-0.715202 9.7124949,9.7124949 0 0 1 1.635043,-0.438216 9.7124949,9.7124949 0 0 1 1.686718,-0.147794 z"
       style="fill:#ffffff;stroke:#ffffff;stroke-width:0;stroke-linecap:round;stroke-linejoin:round;stroke-miterlimit:100"
       id="path6" />
    <circle
       style="fill:#ffffff;fill-opacity:1;stroke:#ffffff;stroke-width:0;stroke-linecap:round;stroke-linejoin:round;stroke-miterlimit:100;stroke-dasharray:none"
       id="path9"
       cx="26.458332"
       cy="23.239685"
       r="3.6491125" />
  </g>
</svg>
